<?xml version="1.0" encoding="utf-8"?>
<!-- Generator: Adobe Illustrator 22.0.0, SVG Export Plug-In . SVG Version: 6.00 Build 0)  -->
<svg version="1.1" id="Capa_1" xmlns="http://www.w3.org/2000/svg" xmlns:xlink="http://www.w3.org/1999/xlink" x="0px" y="0px"
	 viewBox="0 0 64 64" style="enable-background:new 0 0 64 64;" xml:space="preserve">
<style type="text/css">
	.st0{fill:#FFFFFF;}
	.st1{fill:#00B4FF;}
	.st2{fill:#A3D200;}
	.st3{fill:#FF0000;}
</style>
<rect x="1" y="10.3" class="st0" width="64" height="45.4"/>
<g>
	<g>
		<path class="st1" d="M1,32.1c0.1-0.4,0.1-0.8,0.2-1.3c0.9-4.4,4.5-7.7,9-8.3c5.7-0.7,10.9,3.2,11.8,8.8c0.4,2.3,0,4.4-1,6.5
			c-0.2,0.4-0.2,0.4-0.5,0c-0.1-0.1-0.2-0.2-0.3-0.3c-0.4-0.4-0.4-0.4-0.1-0.9c2.4-5.4-1-11.7-6.8-12.8c-5.2-0.9-10.1,2.6-10.8,7.8
			c-0.7,5,2.7,9.7,7.8,10.5c0.6,0.1,1,0.2,1.1,0.8c0.1,0.2,0.3,0.4,0.3,0.6c-0.3,0-0.6,0-0.9,0c-0.1-0.1-0.3-0.1-0.5-0.1
			c-4.5-0.6-8.1-4.1-8.9-8.6c-0.1-0.3,0-0.7-0.2-1C1,33.3,1,32.7,1,32.1z"/>
		<path class="st1" d="M19.8,33c0,1.1-0.2,2.2-0.7,3.3c-0.1,0.2-0.2,0.3-0.3,0c-0.7-0.9-1.3-1.8-2.2-2.5c-0.4-0.3-0.7-0.6-1.1-1
			c-0.5-0.5-1.1-0.5-1.6-0.1c-0.6,0.3-1.2,0.6-1.7,1c-0.8,0.5-1.6,0.9-2.4,1.4c-0.5,0.3-0.6,0.7-0.6,1.1c0.1,1.3,0.5,2.5,1,3.6
			c0.2,0.4,0.4,0.8,0.6,1.2c0.2,0.3,0.1,0.4-0.2,0.3c-2.1-0.3-3.9-1.2-5.4-2.8c-1.6-1.8-2.2-3.9-2-6.2c0.2-2.2,1.2-4.1,2.9-5.5
			c0.1-0.1,0.2-0.1,0.3,0c1,1.7,2.3,3.2,3.4,4.8c0.3,0.4,0.3,0.4,0.8,0.2c0.6-0.3,0.6-0.3,0.3-0.9c-0.5-1-1.1-2.1-1.5-3.2
			c-0.3-0.7-0.6-1.3-1.1-1.9c-0.1-0.2-0.1-0.3,0.1-0.3c3.1-1.1,5.9-0.7,8.4,1.4C18.9,28.3,19.8,30.5,19.8,33z M13.7,30.9
			C13.7,30.9,13.7,30.9,13.7,30.9c0.1-0.5,0.3-1,0.3-1.5c0-0.3,0.2-0.4,0.5-0.5c0.5-0.1,1-0.2,1.5-0.3c-0.5-0.2-1.1-0.3-1.6-0.4
			c-0.2,0-0.3-0.2-0.4-0.4c-0.1-0.5-0.2-1.1-0.3-1.6c-0.2,0.6-0.3,1.1-0.4,1.7c0,0.2-0.1,0.3-0.3,0.3c-0.6,0.1-1.1,0.2-1.7,0.3
			c0.1,0,0.2,0.1,0.3,0.1c0.4,0.1,0.9,0.2,1.3,0.3c0.2,0,0.3,0.2,0.4,0.4C13.5,29.9,13.6,30.4,13.7,30.9z M11.2,33.9
			C11.2,33.9,11.3,33.9,11.2,33.9c0.5-0.3,0.8-0.5,1.2-0.8c0.1-0.1,0.1-0.2,0-0.3c-0.2-0.4-0.5-0.7-0.7-1.1
			c-0.1-0.1-0.2-0.2-0.3-0.1c-0.3,0.2-0.7,0.5-1,0.7c-0.1,0.1-0.2,0.1-0.1,0.3c0.3,0.4,0.5,0.8,0.7,1.2
			C11.1,33.8,11.1,33.9,11.2,33.9z M16.9,32.6C16.9,32.6,16.9,32.6,16.9,32.6c0.1-0.4,0.2-0.7,0.3-1.1c0-0.2,0.1-0.3,0.3-0.3
			c0.4-0.1,0.7-0.1,1.1-0.2c-0.4-0.1-0.7-0.2-1.1-0.3c-0.2,0-0.3-0.1-0.3-0.3C17.1,30,17,29.7,17,29.3c-0.1,0.4-0.2,0.7-0.3,1.1
			c0,0.2-0.1,0.3-0.4,0.3c-0.4,0-0.7,0.1-1,0.2c0.4,0.1,0.7,0.2,1.1,0.3c0.2,0,0.3,0.1,0.3,0.3C16.8,31.8,16.8,32.2,16.9,32.6z"/>
		<path class="st2" d="M17.8,36.8c0,0.1,0.1,0.2,0.1,0.3c0.5,0.8,1,1.7,1.5,2.5c0.1,0.2,0,0.6-0.3,0.7c-0.1,0-0.1-0.1-0.2-0.2
			c-0.6-0.8-1.1-1.7-1.6-2.5c-0.1-0.1-0.1-0.2-0.3-0.2c0.4,0.8,0.8,1.6,1.2,2.3c0.1,0.2,0.3,0.5,0.4,0.7c0.1,0.2,0.1,0.3-0.1,0.4
			c-1,0.8-2.1,1.5-3.3,2c-0.2,0.1-0.3,0-0.4-0.1c-0.4-0.7-0.7-1.3-1.1-2c-0.2-0.4-0.5-0.9-0.8-1.3c0-0.1-0.1-0.2-0.3-0.2
			c0.4,0.8,0.7,1.6,1.1,2.4c0.2,0.4,0.4,0.8,0.6,1.2c0.1,0.2,0.1,0.2-0.1,0.3c-0.5,0.1-1,0.2-1.5,0.3c-0.1,0-0.2,0-0.3-0.2
			c-0.9-1.7-1.7-3.4-2.3-5.2c-0.2-0.5-0.1-0.6,0.3-0.8c1.7-1,3.4-2,5.1-2.9c0.5-0.3,0.7-0.2,1,0.2c1.1,1.4,2.2,2.8,3.3,4.3
			c0.1,0.2,0,0.5-0.2,0.6c-0.1,0.1-0.2-0.1-0.2-0.2c-0.6-0.7-1.1-1.5-1.6-2.2C17.9,37,17.9,36.9,17.8,36.8z M17.8,36.8
			C17.7,36.8,17.7,36.7,17.8,36.8c-0.1,0-0.1,0-0.1,0C17.7,36.8,17.7,36.8,17.8,36.8C17.7,36.8,17.7,36.8,17.8,36.8z"/>
	</g>
	<g>
		<g>
			<path class="st0" d="M45,39.2c-3,0-6,0-8.9,0c-0.4,0-0.5-0.1-0.5-0.3c0-0.5,0-0.5,0.9-0.5c5.9,0,11.7,0,17.6,0
				c0.4,0,0.5,0.1,0.5,0.3c0,0.5,0,0.5-0.8,0.5C50.8,39.2,47.9,39.2,45,39.2z"/>
		</g>
		<path class="st3" d="M65,39.2c-4,0-8,0-12.1,0c-0.1,0-0.3,0.1-0.4-0.1c-0.1-0.2,0-0.5,0-0.7c0-0.1,0.2,0,0.3,0c2.5,0,5,0,7.5,0
			c1.6,0,3.1,0,4.7,0C65,38.6,65,38.9,65,39.2z"/>
		<path d="M65,38c-0.1,0-0.2,0.1-0.3-0.1c0-0.2,0.1-0.2,0.3-0.2C65,37.8,65,37.9,65,38z"/>
		<path class="st3" d="M31.8,33.4c0.4-0.4,0.8-0.5,1.3-0.4c0.1,0,0.2,0,0.2,0.1c0.2,0,0.3,0.4,0.5,0.3c0.2,0,0.3-0.3,0.5-0.3
			c0.3-0.1,0.7-0.1,1,0c0.5,0.1,0.7,0.4,0.7,0.9c0,0.7-0.1,1.5-0.1,2.2c0,0.2-0.1,0.2-0.2,0.2c-0.2,0-0.4,0-0.5,0
			c-0.5,0-0.5,0-0.5-0.6c0-0.4,0-0.9,0.1-1.3c0-0.2,0-0.4-0.3-0.4c-0.2,0-0.4,0.1-0.5,0.3c-0.2,0.4-0.1,0.9-0.2,1.3
			c0,0.7,0,0.7-0.7,0.7c-0.6,0-0.6,0-0.6-0.6c0-0.4,0-0.9,0.1-1.3c0-0.2,0-0.4-0.3-0.4c-0.2,0-0.4,0.1-0.4,0.3
			c-0.1,0.2-0.1,0.4-0.1,0.5c0,0.4,0,0.9-0.1,1.3c0,0.2,0,0.2-0.2,0.2c-0.3,0-0.6,0-0.9,0c-0.2,0-0.2,0-0.2-0.2
			c0.1-1,0.1-1.9,0.1-2.9c0-0.1,0.1-0.2,0.2-0.2c0.2,0,0.5,0,0.7,0C31.8,33,31.9,33.1,31.8,33.4z"/>
		<path class="st3" d="M37.9,36c0,0.6,0,1.1,0,1.6c0,0.2,0,0.3-0.2,0.2c-0.3,0-0.6,0-0.8,0c-0.2,0-0.3-0.1-0.2-0.3
			c0.1-1.2,0.2-2.3,0.2-3.5c0-0.2,0-0.3,0-0.5c0-0.3,0.1-0.5,0.4-0.5c0.7-0.1,1.5-0.2,2.2,0c0.5,0.1,0.8,0.4,1,0.8
			c0.2,0.5,0.2,1.1,0,1.6c-0.4,0.9-1.3,1.1-2.2,0.6C38.2,36.1,38.1,36.1,37.9,36z M38.6,33.9c-0.5,0-0.5,0-0.6,0.5
			c0,0.2,0,0.3,0,0.5c0.1,0.5,0.5,0.7,0.9,0.5c0.3-0.1,0.5-0.6,0.4-1C39.3,34.1,39,33.9,38.6,33.9z"/>
		<path class="st3" d="M30.6,39.2c-2,0-3.9,0-5.9,0c-0.3,0-0.3-0.1-0.3-0.3c0-0.5,0-0.5,0.6-0.5c3.9,0,7.7,0,11.6,0
			c0.3,0,0.4,0.1,0.3,0.3c0,0.5,0,0.5-0.5,0.5C34.4,39.2,32.5,39.2,30.6,39.2z"/>
		<path class="st3" d="M50.5,32c0.3,0,0.7,0,1,0c0.7,0,1.1,0.3,1.2,0.9c0.2,0.6-0.1,1.3-0.6,1.6c-0.4,0.2-0.8,0.3-1.2,0.2
			c-0.1,0-0.2,0-0.2-0.2c0-0.1,0-0.1,0-0.2c0-0.2-0.1-0.3-0.1-0.5c0.1-0.1,0.3,0,0.4-0.1c0.3-0.1,0.5-0.3,0.4-0.6
			c0-0.3-0.3-0.4-0.5-0.3c-0.1,0-0.1,0-0.2,0c-0.2,0-0.3,0.1-0.3,0.3c0,0.9-0.1,1.9-0.1,2.8c0,0.3-0.1,0.4-0.3,0.3
			c-0.2,0-0.5,0-0.7,0c-0.1,0-0.2,0-0.2-0.2c0.1-1.3,0.2-2.6,0.2-4c0-0.2,0-0.2,0.2-0.2C49.8,32,50.2,32,50.5,32
			C50.5,32,50.5,32,50.5,32z"/>
		<path class="st3" d="M62.2,36c-0.4,0.4-0.9,0.5-1.5,0.4c-0.5-0.1-0.8-0.4-0.8-0.9c0-0.7,0.1-1.5,0.1-2.2c0-0.1,0.1-0.2,0.2-0.2
			c0.3,0,0.6,0,1,0c0.2,0,0.2,0.1,0.2,0.2c0,0.4-0.1,0.9-0.1,1.3c0,0.5,0.1,0.7,0.4,0.7c0.3,0,0.6-0.2,0.6-0.7
			c0.1-0.5,0.1-0.9,0.1-1.4c0-0.2,0.1-0.2,0.2-0.2c0.3,0,0.6,0,0.8,0c0.2,0,0.2,0,0.2,0.2c-0.1,1-0.1,1.9-0.2,2.9
			c0,0.2-0.1,0.2-0.2,0.2c-0.2,0-0.4,0-0.7,0C62.3,36.4,62.2,36.3,62.2,36z"/>
		<path class="st3" d="M45.3,34.9c-0.2,0.1-0.5,0.1-0.7,0.2c-0.2,0.1-0.3,0.2-0.2,0.4c0,0.2,0.2,0.2,0.3,0.2c0.1,0,0.2,0,0.3,0
			c0,0,0,0,0,0c-0.1,0.2,0,0.6-0.4,0.6c-0.6,0-1.1,0.1-1.5-0.5c-0.2-0.4-0.1-0.7,0.2-1.1c0.3-0.3,0.7-0.4,1.1-0.5
			c0.2-0.1,0.4-0.1,0.6-0.1c0.1,0,0.2-0.1,0.2-0.3c0-0.2-0.1-0.2-0.3-0.2c-0.4,0-0.7,0.1-1.1,0.2c-0.1,0-0.3,0.1-0.4,0.1
			c0-0.3,0.1-0.5,0.1-0.7c0-0.1,0.1-0.1,0.2-0.1c0.7-0.1,1.4-0.3,2.2-0.1c0.5,0.1,0.7,0.4,0.7,0.9c0,0.7-0.1,1.4-0.1,2.1
			c0,0.1-0.1,0.2-0.2,0.2c-0.3,0-0.6,0-0.9,0c-0.2,0-0.2-0.1-0.2-0.2C45.3,35.7,45.3,35.3,45.3,34.9C45.3,34.9,45.3,34.9,45.3,34.9
			C45.3,34.9,45.3,34.9,45.3,34.9z"/>
		<path class="st3" d="M26.1,36.3c-0.5,0-1,0-1.5,0c-0.2,0-0.2,0-0.2-0.2c0.2-1.3,0.2-2.6,0.2-3.9c0-0.2,0.1-0.3,0.2-0.2
			c0.3,0,0.7,0,1,0c0.2,0,0.2,0.1,0.2,0.2C26,33.1,26,34,25.9,35c0,0.3,0,0.4,0.4,0.4c0.5,0,1,0,1.5,0c0.2,0,0.2,0,0.2,0.2
			c0,0.7,0,0.7-0.7,0.7c-0.3,0-0.6,0-0.8,0C26.3,36.3,26.2,36.3,26.1,36.3C26.1,36.3,26.1,36.3,26.1,36.3z"/>
		<path class="st3" d="M56.3,35.4c0,0.3-0.1,0.6-0.1,0.8c0,0.1-0.1,0.1-0.2,0.1c-0.6,0.1-1.1,0.1-1.7,0c-1-0.2-1.4-1-1.2-2
			c0.2-0.8,0.7-1.3,1.6-1.4c0.3,0,0.6,0,0.8,0c0.8,0.2,1.2,0.8,1.1,1.6c0,0.2-0.1,0.2-0.2,0.2c-0.6,0-1.2,0-1.8,0
			c-0.3,0-0.3,0.1-0.2,0.3c0.1,0.3,0.4,0.4,0.7,0.5C55.5,35.6,55.9,35.5,56.3,35.4z M54.9,34.4c0.1,0,0.2,0,0.3,0
			c0.3,0,0.3-0.1,0.2-0.3c-0.1-0.3-0.5-0.4-0.8-0.1c-0.1,0.1-0.2,0.2-0.2,0.4c0,0.2,0.2,0.1,0.3,0.1C54.8,34.4,54.9,34.4,54.9,34.4z
			"/>
		<path class="st3" d="M58.4,33.4c0.3-0.3,0.5-0.4,0.8-0.4c0.2,0,0.3,0,0.3,0.3c0,0.1,0,0.2,0,0.2c0,0.2,0.1,0.4,0,0.5
			c-0.1,0.2-0.3,0-0.5,0.1c-0.3,0.1-0.5,0.3-0.6,0.6c-0.1,0.5-0.1,1-0.1,1.4c0,0.2-0.1,0.3-0.3,0.3c-0.3,0-0.5,0-0.8,0
			c-0.2,0-0.2-0.1-0.2-0.3c0.1-0.9,0.1-1.9,0.1-2.8c0-0.2,0.1-0.2,0.2-0.2c0.2,0,0.5,0,0.7,0C58.3,33.1,58.5,33.1,58.4,33.4z"/>
		<path class="st3" d="M29,36.3c-0.7,0-0.6,0-0.6-0.7c0-0.8,0.1-1.5,0.1-2.3c0-0.2,0.1-0.3,0.3-0.3c0.3,0,0.6,0,0.9,0
			c0.2,0,0.2,0,0.2,0.2c-0.1,0.9-0.1,1.9-0.1,2.8c0,0.2-0.1,0.2-0.2,0.2C29.3,36.3,29.1,36.3,29,36.3z"/>
		<path class="st3" d="M41.8,36.3c-0.7,0-0.7,0-0.6-0.7c0-0.8,0.1-1.5,0.1-2.3c0-0.2,0-0.3,0.3-0.3c0.3,0,0.6,0,0.9,0
			c0.2,0,0.2,0,0.2,0.2c-0.1,1-0.1,1.9-0.1,2.9c0,0.1,0,0.2-0.2,0.2C42.1,36.3,42,36.3,41.8,36.3z"/>
		<path class="st1" d="M24.5,30.4c-0.2,0-0.5-0.1-0.7-0.1c-0.2-0.1-0.2-0.2-0.2-0.4c0.1-0.2,0.1-0.3,0.4-0.2
			c0.2,0.2,0.5,0.2,0.7,0.1c0.2,0,0.4-0.1,0.4-0.3c0.1-0.2,0-0.4-0.2-0.5c-0.1-0.1-0.3-0.2-0.4-0.2c-0.6-0.4-0.6-1.2,0.1-1.6
			c0.4-0.2,0.8-0.3,1.2-0.1c0.2,0.1,0.3,0.2,0.2,0.5c-0.1,0.2-0.1,0.2-0.3,0.1c-0.2-0.1-0.3-0.1-0.5-0.1c-0.2,0-0.3,0.1-0.4,0.3
			c-0.1,0.2,0,0.3,0.2,0.4c0.1,0.1,0.3,0.2,0.4,0.2c0.7,0.4,0.6,1.3-0.1,1.7C25.1,30.4,24.8,30.4,24.5,30.4z"/>
		<path class="st1" d="M39.2,27.9c0.8,0,1.1,0.4,1,1.2c-0.2,0.9-0.7,1.4-1.6,1.4c-0.5,0-0.8-0.3-0.9-0.8c0-0.5,0.1-0.9,0.4-1.3
			C38.5,28,38.8,27.8,39.2,27.9z M39.6,28.9c0-0.2,0-0.4-0.2-0.5c-0.3-0.1-0.5,0-0.6,0.2c-0.2,0.2-0.2,0.5-0.3,0.8
			c0,0.2,0,0.4,0.2,0.5c0.2,0.1,0.4,0,0.6-0.2C39.5,29.5,39.6,29.2,39.6,28.9z"/>
		<path class="st1" d="M53.4,30.1c-0.2,0.1-0.3,0.2-0.5,0.3c-0.5,0.1-0.8-0.1-0.9-0.6c0-0.4,0-0.8,0.2-1.2c0.4-0.7,1-0.9,1.7-0.4
			c0-0.1,0-0.1,0.1-0.2c0.1-0.1,0.2-0.1,0.3-0.1c0.1,0,0.1,0.1,0.1,0.2c-0.2,0.8-0.3,1.6-0.5,2.4c-0.2,0.7-1.2,1.1-1.8,0.6
			c-0.1-0.1-0.1-0.2-0.1-0.3c0.1-0.1,0.1-0.1,0.2-0.1c0.1,0.1,0.3,0.1,0.4,0.1C53.1,31,53.4,30.7,53.4,30.1z M52.4,29.4
			c0,0.3,0,0.5,0.2,0.6c0.2,0.1,0.4,0,0.6-0.2c0.3-0.2,0.4-0.6,0.5-0.9c0.1-0.3,0-0.5-0.2-0.6c-0.3-0.1-0.5-0.1-0.7,0.1
			C52.5,28.7,52.4,29.1,52.4,29.4z M53.4,30L53.4,30L53.4,30L53.4,30z"/>
		<path class="st1" d="M27.2,30.4c-0.8,0-1.1-0.4-1-1.2c0.1-0.4,0.2-0.8,0.6-1.1c0.4-0.3,0.8-0.3,1.2-0.2c0.3,0.1,0.5,0.2,0.5,0.5
			c0,0.3-0.1,0.5-0.4,0.7c-0.3,0.1-0.6,0.2-0.9,0.2c-0.1,0-0.3-0.1-0.3,0.2c0,0.2,0,0.4,0.3,0.4c0.2,0,0.5,0,0.7-0.1
			c0.1,0,0.2-0.2,0.3,0c0.1,0.2,0,0.3-0.2,0.4C27.7,30.4,27.5,30.4,27.2,30.4z M27.2,28.9c0.2,0,0.3,0,0.5-0.1
			c0.1-0.1,0.2-0.2,0.2-0.3c0-0.1-0.1-0.2-0.3-0.2c-0.2,0-0.4,0.1-0.5,0.3C27,28.6,27,28.7,27,28.8C27.1,28.9,27.2,28.9,27.2,28.9z"
			/>
		<path class="st1" d="M31.6,29.6c0.4-0.4,0.6-0.9,0.7-1.4c0-0.1,0-0.2,0.2-0.3c0.2,0,0.3-0.1,0.4,0c0.1,0.1,0,0.3,0,0.4
			c-0.2,0.6-0.5,1.3-0.9,1.8c-0.1,0.2-0.6,0.3-0.8,0.2C31,30.3,31,30.2,31,30.1c-0.1-0.6-0.2-1.3-0.3-1.9c0-0.2,0-0.3,0.2-0.3
			c0.2,0,0.4-0.1,0.4,0.2C31.5,28.6,31.5,29.1,31.6,29.6z"/>
		<path class="st1" d="M57.8,30.1c-0.2,0.1-0.3,0.3-0.6,0.3c-0.4,0.1-0.8-0.1-0.9-0.5c-0.1-0.7,0.1-1.2,0.5-1.7
			c0.3-0.3,0.8-0.4,1.1-0.1c0.1,0.1,0.2,0.1,0.3-0.1c0-0.1,0.2-0.1,0.3-0.1c0.1,0,0.1,0.1,0,0.2c-0.1,0.6-0.3,1.3-0.4,1.9
			c0,0.1,0,0.3-0.2,0.3C57.8,30.4,57.9,30.2,57.8,30.1z M56.8,29.5c0,0.2,0,0.4,0.2,0.5c0.2,0.1,0.4,0,0.5-0.1
			c0.4-0.3,0.5-0.8,0.6-1.2c0-0.1,0-0.2-0.1-0.2c-0.3-0.3-0.6-0.2-0.9,0.1C56.9,28.8,56.9,29.2,56.8,29.5z"/>
		<path class="st1" d="M41.7,27.9c0.2,0,0.3,0,0.5,0.1c0.2,0.1,0.2,0.2,0.2,0.4c-0.1,0.2-0.2,0.1-0.3,0.1c-0.1,0-0.2-0.1-0.3-0.1
			c-0.2,0-0.3,0.1-0.3,0.2c0,0.2,0.1,0.2,0.2,0.3c0.1,0,0.1,0.1,0.2,0.1c0.6,0.3,0.6,1,0.1,1.3c-0.4,0.2-0.8,0.3-1.2,0.1
			c-0.2-0.1-0.2-0.2-0.1-0.4c0.1-0.2,0.2-0.1,0.3,0c0.2,0.1,0.3,0.1,0.5,0.1c0.1,0,0.2-0.1,0.2-0.2c0-0.1,0-0.2-0.1-0.3
			c-0.1,0-0.1-0.1-0.2-0.1c-0.3-0.1-0.5-0.3-0.5-0.7c0-0.3,0.2-0.6,0.5-0.7C41.4,27.9,41.5,27.8,41.7,27.9z"/>
		<path class="st1" d="M34.4,29.5c0-0.5,0.2-1,0.5-1.3c0.4-0.3,0.8-0.4,1.2-0.2c0.3,0.1,0.3,0.3,0.2,0.5c-0.1,0.2-0.1,0.2-0.3,0.1
			c-0.4-0.2-0.7-0.1-0.9,0.3c-0.1,0.2-0.1,0.4-0.1,0.5c-0.1,0.4,0.2,0.7,0.6,0.5c0,0,0,0,0.1,0c0.1,0,0.3-0.2,0.3-0.1
			c0.1,0.2,0,0.4-0.2,0.5c-0.4,0.2-0.7,0.3-1.1,0.1C34.4,30.1,34.4,29.8,34.4,29.5z"/>
		<path class="st1" d="M60.3,29.5c0-0.8,0.5-1.5,1.1-1.6c0.1,0,0.1,0,0.2,0c0.4,0,0.8,0.2,0.8,0.5c0,0.3-0.2,0.6-0.6,0.7
			c-0.2,0.1-0.5,0.1-0.7,0.1c-0.2,0-0.4-0.1-0.4,0.2c0,0.3,0.1,0.6,0.4,0.6c0.2,0,0.5,0,0.7-0.1c0.1,0,0.2-0.2,0.3,0
			c0.1,0.1,0,0.3-0.2,0.3c-0.4,0.1-0.7,0.2-1.1,0C60.4,30.2,60.2,29.9,60.3,29.5z M61.1,28.9c0.2,0,0.5,0,0.7-0.1
			c0.1-0.1,0.2-0.2,0.2-0.4c0-0.2-0.2-0.2-0.3-0.2c-0.3,0-0.6,0.1-0.7,0.4c-0.1,0.1-0.1,0.2-0.1,0.3C60.9,29,61,28.9,61.1,28.9z"/>
		<path class="st1" d="M49.4,29.5c0-0.9,0.5-1.5,1.2-1.6c0.4,0,0.8,0.2,0.9,0.5c0,0.3-0.1,0.5-0.3,0.6c-0.3,0.2-0.6,0.2-1,0.2
			c-0.2,0-0.4-0.1-0.4,0.2c0,0.4,0.1,0.6,0.4,0.6c0.2,0,0.5,0,0.7-0.1c0.1,0,0.2-0.1,0.2,0c0,0.1,0,0.2-0.1,0.3
			c-0.2,0.1-0.5,0.1-0.7,0.1C49.7,30.4,49.4,30.1,49.4,29.5z M50.3,28.9c0.2,0,0.5,0,0.7-0.1c0.1-0.1,0.2-0.2,0.2-0.3
			c0-0.1-0.1-0.2-0.3-0.2c-0.3,0-0.5,0.1-0.7,0.3c-0.1,0.1-0.2,0.2-0.1,0.3C50.1,29,50.2,28.9,50.3,28.9z"/>
		<path class="st1" d="M45.9,28.3c0.2-0.2,0.4-0.3,0.7-0.4c0.4-0.1,0.7,0.2,0.7,0.5c0,0.6-0.2,1.2-0.3,1.9c0,0.2-0.2,0.1-0.3,0.1
			c-0.1,0-0.1-0.1-0.1-0.2c0.1-0.4,0.2-0.8,0.2-1.3c0-0.1,0-0.2,0-0.3c0-0.3-0.2-0.4-0.4-0.3c-0.4,0.1-0.6,0.5-0.7,0.8
			c-0.1,0.3-0.1,0.7-0.2,1c0,0.1-0.1,0.2-0.2,0.2c-0.2,0-0.2,0-0.2-0.2c0.1-0.6,0.3-1.3,0.4-1.9c0-0.2,0-0.3,0.3-0.3
			C46,27.9,45.8,28.2,45.9,28.3z"/>
		<path class="st1" d="M29.7,28.2c0.2-0.2,0.4-0.4,0.7-0.3c0.1,0,0.3,0,0.2,0.2c0,0.2,0,0.4-0.2,0.4c-0.4,0.1-0.7,0.2-0.8,0.7
			c-0.1,0.3-0.1,0.6-0.2,0.9c0,0.2-0.4,0.4-0.6,0.2c-0.1,0,0-0.1,0-0.2c0.1-0.7,0.3-1.4,0.4-2.1c0-0.2,0.2-0.2,0.3-0.2
			C29.7,27.9,29.7,28,29.7,28.2z"/>
		<path class="st1" d="M63.2,30.4c-0.2,0-0.4,0-0.5-0.2c-0.1-0.1-0.1-0.2-0.1-0.3c0.1-0.1,0.2,0,0.2,0c0.2,0.1,0.4,0.1,0.7,0.1
			c0.2,0,0.3-0.1,0.3-0.3c0-0.2-0.1-0.3-0.2-0.4c-0.1-0.1-0.2-0.1-0.4-0.2c-0.4-0.2-0.4-0.7-0.1-1.1c0.3-0.3,0.8-0.3,1.1-0.1
			c0.1,0.1,0.2,0.2,0.1,0.3c-0.1,0.2-0.2,0.1-0.3,0c-0.1,0-0.2-0.1-0.3-0.1c-0.2,0-0.4,0-0.5,0.3c-0.1,0.3,0.1,0.3,0.3,0.4
			c0.5,0.3,0.6,0.5,0.5,0.8C64.1,30.2,63.7,30.4,63.2,30.4z"/>
		<path class="st1" d="M48.5,30.4c-0.4,0-0.7-0.2-0.6-0.6c0.1-0.4,0.2-0.9,0.2-1.3c0-0.1,0.1-0.2-0.1-0.2c-0.1,0-0.2,0-0.2-0.1
			c0-0.1,0.1-0.2,0.2-0.2c0.2,0,0.3-0.1,0.3-0.3c0-0.1,0-0.2,0.1-0.2c0.1-0.2,0.2-0.1,0.3-0.1c0.1,0,0.1,0.1,0.1,0.2
			c-0.1,0.4-0.1,0.4,0.3,0.4c0.1,0,0.3,0,0.2,0.1c0,0.1-0.1,0.2-0.2,0.2c-0.1,0-0.1,0-0.2,0c-0.2,0-0.3,0-0.3,0.2
			c-0.1,0.4-0.2,0.8-0.2,1.2c0,0.2,0.1,0.3,0.3,0.3c0.1,0,0.2-0.1,0.2,0c0,0.1,0,0.2-0.1,0.3C48.7,30.4,48.6,30.4,48.5,30.4z"/>
		<path class="st1" d="M36.7,30.4c-0.2,0-0.3-0.1-0.2-0.3c0.1-0.6,0.3-1.3,0.4-1.9c0-0.2,0.4-0.4,0.6-0.2c0.1,0,0,0.1,0,0.2
			c-0.1,0.7-0.3,1.4-0.4,2.1C37.1,30.4,36.9,30.4,36.7,30.4z"/>
		<path class="st1" d="M33.4,30.4c-0.3,0.1-0.3-0.1-0.3-0.3c0.1-0.6,0.2-1.3,0.4-1.9c0-0.2,0.4-0.4,0.6-0.2c0.1,0.1,0,0.1,0,0.2
			c-0.1,0.7-0.3,1.3-0.4,2C33.7,30.3,33.6,30.4,33.4,30.4z"/>
		<path class="st1" d="M59.2,30.4c-0.2,0-0.2,0-0.2-0.2c0.2-1,0.4-2.1,0.6-3.1c0-0.2,0.2-0.2,0.3-0.2c0.2,0,0.1,0.2,0.1,0.3
			c-0.2,1-0.4,2-0.6,3C59.5,30.2,59.4,30.4,59.2,30.4z"/>
		<path class="st1" d="M44,30.4c-0.2,0-0.2,0-0.2-0.2c0.2-1,0.4-1.9,0.6-2.9c0-0.2,0.2-0.3,0.4-0.2c0.2,0,0.1,0.2,0.1,0.3
			c-0.2,0.9-0.4,1.8-0.5,2.7C44.3,30.2,44.3,30.4,44,30.4z"/>
		<path class="st1" d="M55.4,28.2c0.2-0.2,0.3-0.3,0.6-0.3c0.1,0,0.2,0,0.3,0.1c0.1,0.1,0,0.2,0,0.3c0,0.1-0.1,0.1-0.1,0.1
			c-0.3-0.1-0.5,0.1-0.7,0.4c-0.3,0.4-0.3,0.9-0.4,1.3c0,0.1,0,0.4-0.2,0.4c-0.2,0-0.2,0-0.2-0.2c0.1-0.6,0.3-1.3,0.4-2
			c0-0.1,0-0.3,0.3-0.3C55.5,27.9,55.3,28.1,55.4,28.2z"/>
		<path d="M60,36.6c0.2,0,0.3,0,0.5,0.2c0,0.1,0.1,0.1,0,0.2c-0.1,0-0.2,0.1-0.2,0c-0.1-0.1-0.1-0.1-0.2-0.2c-0.1,0-0.3,0-0.3,0.1
			c-0.1,0.1,0.1,0.2,0.2,0.2c0.1,0,0.3,0.1,0.4,0.1c0.2,0.1,0.3,0.4,0.2,0.6c-0.1,0.2-0.4,0.2-0.6,0.2c-0.2,0-0.4-0.1-0.5-0.3
			c0-0.1-0.1-0.2,0-0.2c0.1,0,0.2-0.1,0.2,0.1c0,0.1,0.1,0.2,0.2,0.2c0.1,0,0.3,0,0.3-0.1c0.1-0.2-0.1-0.2-0.2-0.2
			c-0.1,0-0.1,0-0.2-0.1c-0.2-0.1-0.4-0.2-0.4-0.5C59.5,36.7,59.7,36.6,60,36.6z"/>
		<path d="M62.6,38c-0.2,0.1-0.3,0-0.4-0.2c-0.1-0.2-0.3-0.1-0.4-0.1c-0.1,0-0.2,0-0.3,0.1c0,0.2-0.2,0.2-0.4,0.2
			c0.2-0.4,0.3-0.8,0.5-1.3c0-0.1,0.1-0.2,0.2-0.2c0.1,0,0.2,0.1,0.2,0.2C62.3,37.2,62.5,37.6,62.6,38z M61.9,37
			c-0.1,0.2-0.2,0.3-0.1,0.5c0,0.1,0.2,0.1,0.2,0C62.1,37.3,62,37.2,61.9,37z"/>
		<path class="st3" d="M42,31.9c0.1,0,0.1,0,0.2,0c0.5,0,0.4,0,0.4,0.5c0,0.3-0.1,0.3-0.3,0.3c-0.2,0-0.5,0-0.7,0
			c-0.2,0-0.2,0-0.2-0.2C41.3,31.9,41.3,31.9,42,31.9z"/>
		<path class="st3" d="M29.2,31.9c0.1,0,0.1,0,0.2,0c0.5,0,0.4,0,0.5,0.4c0,0.3-0.1,0.3-0.3,0.3c-0.2,0-0.5,0-0.7,0
			c-0.3,0-0.3-0.1-0.3-0.3c0-0.1,0-0.2,0-0.2c0-0.2,0-0.2,0.2-0.2C28.9,31.9,29,31.9,29.2,31.9C29.2,31.9,29.2,31.9,29.2,31.9z"/>
		<path d="M63.6,37.3c0,0.2,0,0.4,0.2,0.5c0.2,0.1,0.3,0,0.4-0.2c0.1-0.1,0.1-0.1,0.2,0c0.1,0,0.1,0.1,0,0.2
			c-0.1,0.3-0.4,0.3-0.6,0.3c-0.3,0-0.4-0.2-0.5-0.4c-0.1-0.3-0.1-0.6,0.2-0.9c0.2-0.2,0.4-0.2,0.7-0.2c0.1,0,0.2,0.1,0.3,0.2
			c0,0.1,0.1,0.1,0.1,0.2c-0.1,0.1-0.2,0.1-0.3,0c-0.1-0.2-0.3-0.2-0.4-0.1C63.6,37,63.6,37.1,63.6,37.3z"/>
		<path class="st3" d="M62.8,31.9c-0.3,0.7-0.8,0.8-1.5,0.7c0.1-0.2,0.2-0.4,0.3-0.6c0-0.1,0.1-0.1,0.2-0.1
			C62.1,31.9,62.5,31.9,62.8,31.9z"/>
		<path class="st1" d="M33.8,27.6c-0.2,0-0.3,0-0.3-0.2c0-0.3,0.2-0.4,0.5-0.4c0.2,0,0.3,0,0.3,0.3C34.3,27.5,34.2,27.6,33.8,27.6z"
			/>
		<path class="st1" d="M37.3,27.6c-0.2,0-0.3-0.1-0.3-0.3c0-0.3,0.2-0.4,0.5-0.4c0.2,0,0.3,0,0.3,0.3C37.7,27.4,37.6,27.6,37.3,27.6
			z"/>
		<path d="M60.9,37.8c0.1,0,0.1,0.1,0.1,0.2c0,0.1-0.1,0.1-0.2,0.1c-0.1,0-0.2,0-0.2-0.1C60.8,37.8,60.8,37.7,60.9,37.8z"/>
		<path d="M63.1,37.9c0,0.1-0.1,0.1-0.2,0.1c-0.1,0-0.2-0.1-0.2-0.2c0-0.1,0.1-0.1,0.2-0.1C63,37.7,63.1,37.8,63.1,37.9z"/>
	</g>
</g>
</svg>
