<?xml version="1.0" encoding="utf-8"?>
<!-- Generator: Adobe Illustrator 22.0.0, SVG Export Plug-In . SVG Version: 6.00 Build 0)  -->
<svg version="1.1" id="Capa_1" xmlns="http://www.w3.org/2000/svg" xmlns:xlink="http://www.w3.org/1999/xlink" x="0px" y="0px"
	 viewBox="0 0 64 64" style="enable-background:new 0 0 64 64;" xml:space="preserve">
<style type="text/css">
	.st0{fill:#FFFFFF;}
	.st1{fill:#00B4FF;}
	.st2{fill:#A3D200;}
	.st3{fill:#FF0000;}
</style>
<rect y="9.3" class="st0" width="64" height="45.4"/>
<g>
	<g>
		<path class="st1" d="M0,31.1c0.1-0.4,0.1-0.8,0.2-1.3c0.9-4.4,4.5-7.7,9-8.3c5.7-0.7,10.9,3.2,11.8,8.8c0.4,2.3,0,4.4-1,6.5
			c-0.2,0.4-0.2,0.4-0.5,0c-0.1-0.1-0.2-0.2-0.3-0.3c-0.4-0.4-0.4-0.4-0.1-0.9c2.4-5.4-1-11.7-6.8-12.8c-5.2-0.9-10.1,2.6-10.8,7.8
			c-0.7,5,2.7,9.7,7.8,10.5c0.6,0.1,1,0.2,1.1,0.8c0.1,0.2,0.3,0.4,0.3,0.6c-0.3,0-0.6,0-0.9,0c-0.1-0.1-0.3-0.1-0.5-0.1
			c-4.5-0.6-8.1-4.1-8.9-8.6c-0.1-0.3,0-0.7-0.2-1C0,32.3,0,31.7,0,31.1z"/>
		<path class="st1" d="M18.8,32c0,1.1-0.2,2.2-0.7,3.3c-0.1,0.2-0.2,0.3-0.3,0c-0.7-0.9-1.3-1.8-2.2-2.5c-0.4-0.3-0.7-0.6-1.1-1
			c-0.5-0.5-1.1-0.5-1.6-0.1c-0.6,0.3-1.2,0.6-1.7,1c-0.8,0.5-1.6,0.9-2.4,1.4c-0.5,0.3-0.6,0.7-0.6,1.1c0.1,1.3,0.5,2.5,1,3.6
			c0.2,0.4,0.4,0.8,0.6,1.2c0.2,0.3,0.1,0.4-0.2,0.3c-2.1-0.3-3.9-1.2-5.4-2.8c-1.6-1.8-2.2-3.9-2-6.2c0.2-2.2,1.2-4.1,2.9-5.5
			c0.1-0.1,0.2-0.1,0.3,0c1,1.7,2.3,3.2,3.4,4.8c0.3,0.4,0.3,0.4,0.8,0.2c0.6-0.3,0.6-0.3,0.3-0.9c-0.5-1-1.1-2.1-1.5-3.2
			c-0.3-0.7-0.6-1.3-1.1-1.9c-0.1-0.2-0.1-0.3,0.1-0.3c3.1-1.1,5.9-0.7,8.4,1.4C17.9,27.3,18.8,29.5,18.8,32z M12.7,29.9
			C12.7,29.9,12.7,29.9,12.7,29.9c0.1-0.5,0.3-1,0.3-1.5c0-0.3,0.2-0.4,0.5-0.5c0.5-0.1,1-0.2,1.5-0.3c-0.5-0.2-1.1-0.3-1.6-0.4
			c-0.2,0-0.3-0.2-0.4-0.4c-0.1-0.5-0.2-1.1-0.3-1.6c-0.2,0.6-0.3,1.1-0.4,1.7c0,0.2-0.1,0.3-0.3,0.3c-0.6,0.1-1.1,0.2-1.7,0.3
			c0.1,0,0.2,0.1,0.3,0.1c0.4,0.1,0.9,0.2,1.3,0.3c0.2,0,0.3,0.2,0.4,0.4C12.5,28.9,12.6,29.4,12.7,29.9z M10.2,32.9
			C10.2,32.9,10.3,32.9,10.2,32.9c0.5-0.3,0.8-0.5,1.2-0.8c0.1-0.1,0.1-0.2,0-0.3c-0.2-0.4-0.5-0.7-0.7-1.1
			c-0.1-0.1-0.2-0.2-0.3-0.1c-0.3,0.2-0.7,0.5-1,0.7c-0.1,0.1-0.2,0.1-0.1,0.3c0.3,0.4,0.5,0.8,0.7,1.2
			C10.1,32.8,10.1,32.9,10.2,32.9z M15.9,31.6C15.9,31.6,15.9,31.6,15.9,31.6c0.1-0.4,0.2-0.7,0.3-1.1c0-0.2,0.1-0.3,0.3-0.3
			c0.4-0.1,0.7-0.1,1.1-0.2c-0.4-0.1-0.7-0.2-1.1-0.3c-0.2,0-0.3-0.1-0.3-0.3C16.1,29,16,28.7,16,28.3c-0.1,0.4-0.2,0.7-0.3,1.1
			c0,0.2-0.1,0.3-0.4,0.3c-0.4,0-0.7,0.1-1,0.2c0.4,0.1,0.7,0.2,1.1,0.3c0.2,0,0.3,0.1,0.3,0.3C15.8,30.8,15.8,31.2,15.9,31.6z"/>
		<path class="st2" d="M16.8,35.8c0,0.1,0.1,0.2,0.1,0.3c0.5,0.8,1,1.7,1.5,2.5c0.1,0.2,0,0.6-0.3,0.7c-0.1,0-0.1-0.1-0.2-0.2
			c-0.6-0.8-1.1-1.7-1.6-2.5c-0.1-0.1-0.1-0.2-0.3-0.2c0.4,0.8,0.8,1.6,1.2,2.3c0.1,0.2,0.3,0.5,0.4,0.7c0.1,0.2,0.1,0.3-0.1,0.4
			c-1,0.8-2.1,1.5-3.3,2c-0.2,0.1-0.3,0-0.4-0.1c-0.4-0.7-0.7-1.3-1.1-2c-0.2-0.4-0.5-0.9-0.8-1.3c0-0.1-0.1-0.2-0.3-0.2
			c0.4,0.8,0.7,1.6,1.1,2.4c0.2,0.4,0.4,0.8,0.6,1.2c0.1,0.2,0.1,0.2-0.1,0.3c-0.5,0.1-1,0.2-1.5,0.3c-0.1,0-0.2,0-0.3-0.2
			c-0.9-1.7-1.7-3.4-2.3-5.2c-0.2-0.5-0.1-0.6,0.3-0.8c1.7-1,3.4-2,5.1-2.9c0.5-0.3,0.7-0.2,1,0.2c1.1,1.4,2.2,2.8,3.3,4.3
			c0.1,0.2,0,0.5-0.2,0.6c-0.1,0.1-0.2-0.1-0.2-0.2c-0.6-0.7-1.1-1.5-1.6-2.2C16.9,36,16.9,35.9,16.8,35.8z M16.8,35.8
			C16.7,35.8,16.7,35.7,16.8,35.8c-0.1,0-0.1,0-0.1,0C16.7,35.8,16.7,35.8,16.8,35.8C16.7,35.8,16.7,35.8,16.8,35.8z"/>
	</g>
	<g>
		<g>
			<path class="st0" d="M44,38.2c-3,0-6,0-8.9,0c-0.4,0-0.5-0.1-0.5-0.3c0-0.5,0-0.5,0.9-0.5c5.9,0,11.7,0,17.6,0
				c0.4,0,0.5,0.1,0.5,0.3c0,0.5,0,0.5-0.8,0.5C49.8,38.2,46.9,38.2,44,38.2z"/>
		</g>
		<path class="st3" d="M64,38.2c-4,0-8,0-12.1,0c-0.1,0-0.3,0.1-0.4-0.1c-0.1-0.2,0-0.5,0-0.7c0-0.1,0.2,0,0.3,0c2.5,0,5,0,7.5,0
			c1.6,0,3.1,0,4.7,0C64,37.6,64,37.9,64,38.2z"/>
		<path d="M64,37c-0.1,0-0.2,0.1-0.3-0.1c0-0.2,0.1-0.2,0.3-0.2C64,36.8,64,36.9,64,37z"/>
		<path class="st3" d="M30.8,32.4c0.4-0.4,0.8-0.5,1.3-0.4c0.1,0,0.2,0,0.2,0.1c0.2,0,0.3,0.4,0.5,0.3c0.2,0,0.3-0.3,0.5-0.3
			c0.3-0.1,0.7-0.1,1,0c0.5,0.1,0.7,0.4,0.7,0.9c0,0.7-0.1,1.5-0.1,2.2c0,0.2-0.1,0.2-0.2,0.2c-0.2,0-0.4,0-0.5,0
			c-0.5,0-0.5,0-0.5-0.6c0-0.4,0-0.9,0.1-1.3c0-0.2,0-0.4-0.3-0.4c-0.2,0-0.4,0.1-0.5,0.3c-0.2,0.4-0.1,0.9-0.2,1.3
			c0,0.7,0,0.7-0.7,0.7c-0.6,0-0.6,0-0.6-0.6c0-0.4,0-0.9,0.1-1.3c0-0.2,0-0.4-0.3-0.4c-0.2,0-0.4,0.1-0.4,0.3
			c-0.1,0.2-0.1,0.4-0.1,0.5c0,0.4,0,0.9-0.1,1.3c0,0.2,0,0.2-0.2,0.2c-0.3,0-0.6,0-0.9,0c-0.2,0-0.2,0-0.2-0.2
			c0.1-1,0.1-1.9,0.1-2.9c0-0.1,0.1-0.2,0.2-0.2c0.2,0,0.5,0,0.7,0C30.8,32,30.9,32.1,30.8,32.4z"/>
		<path class="st3" d="M36.9,35c0,0.6,0,1.1,0,1.6c0,0.2,0,0.3-0.2,0.2c-0.3,0-0.6,0-0.8,0c-0.2,0-0.3-0.1-0.2-0.3
			c0.1-1.2,0.2-2.3,0.2-3.5c0-0.2,0-0.3,0-0.5c0-0.3,0.1-0.5,0.4-0.5c0.7-0.1,1.5-0.2,2.2,0c0.5,0.1,0.8,0.4,1,0.8
			c0.2,0.5,0.2,1.1,0,1.6c-0.4,0.9-1.3,1.1-2.2,0.6C37.2,35.1,37.1,35.1,36.9,35z M37.6,32.9c-0.5,0-0.5,0-0.6,0.5
			c0,0.2,0,0.3,0,0.5c0.1,0.5,0.5,0.7,0.9,0.5c0.3-0.1,0.5-0.6,0.4-1C38.3,33.1,38,32.9,37.6,32.9z"/>
		<path class="st3" d="M29.6,38.2c-2,0-3.9,0-5.9,0c-0.3,0-0.3-0.1-0.3-0.3c0-0.5,0-0.5,0.6-0.5c3.9,0,7.7,0,11.6,0
			c0.3,0,0.4,0.1,0.3,0.3c0,0.5,0,0.5-0.5,0.5C33.4,38.2,31.5,38.2,29.6,38.2z"/>
		<path class="st3" d="M49.5,31c0.3,0,0.7,0,1,0c0.7,0,1.1,0.3,1.2,0.9c0.2,0.6-0.1,1.3-0.6,1.6c-0.4,0.2-0.8,0.3-1.2,0.2
			c-0.1,0-0.2,0-0.2-0.2c0-0.1,0-0.1,0-0.2c0-0.2-0.1-0.3-0.1-0.5c0.1-0.1,0.3,0,0.4-0.1c0.3-0.1,0.5-0.3,0.4-0.6
			c0-0.3-0.3-0.4-0.5-0.3c-0.1,0-0.1,0-0.2,0c-0.2,0-0.3,0.1-0.3,0.3c0,0.9-0.1,1.9-0.1,2.8c0,0.3-0.1,0.4-0.3,0.3
			c-0.2,0-0.5,0-0.7,0c-0.1,0-0.2,0-0.2-0.2c0.1-1.3,0.2-2.6,0.2-4c0-0.2,0-0.2,0.2-0.2C48.8,31,49.2,31,49.5,31
			C49.5,31,49.5,31,49.5,31z"/>
		<path class="st3" d="M61.2,35c-0.4,0.4-0.9,0.5-1.5,0.4c-0.5-0.1-0.8-0.4-0.8-0.9c0-0.7,0.1-1.5,0.1-2.2c0-0.1,0.1-0.2,0.2-0.2
			c0.3,0,0.6,0,1,0c0.2,0,0.2,0.1,0.2,0.2c0,0.4-0.1,0.9-0.1,1.3c0,0.5,0.1,0.7,0.4,0.7c0.3,0,0.6-0.2,0.6-0.7
			c0.1-0.5,0.1-0.9,0.1-1.4c0-0.2,0.1-0.2,0.2-0.2c0.3,0,0.6,0,0.8,0c0.2,0,0.2,0,0.2,0.2c-0.1,1-0.1,1.9-0.2,2.9
			c0,0.2-0.1,0.2-0.2,0.2c-0.2,0-0.4,0-0.7,0C61.3,35.4,61.2,35.3,61.2,35z"/>
		<path class="st3" d="M44.3,33.9c-0.2,0.1-0.5,0.1-0.7,0.2c-0.2,0.1-0.3,0.2-0.2,0.4c0,0.2,0.2,0.2,0.3,0.2c0.1,0,0.2,0,0.3,0
			c0,0,0,0,0,0c-0.1,0.2,0,0.6-0.4,0.6c-0.6,0-1.1,0.1-1.5-0.5c-0.2-0.4-0.1-0.7,0.2-1.1c0.3-0.3,0.7-0.4,1.1-0.5
			c0.2-0.1,0.4-0.1,0.6-0.1c0.1,0,0.2-0.1,0.2-0.3c0-0.2-0.1-0.2-0.3-0.2c-0.4,0-0.7,0.1-1.1,0.2c-0.1,0-0.3,0.1-0.4,0.1
			c0-0.3,0.1-0.5,0.1-0.7c0-0.1,0.1-0.1,0.2-0.1c0.7-0.1,1.4-0.3,2.2-0.1c0.5,0.1,0.7,0.4,0.7,0.9c0,0.7-0.1,1.4-0.1,2.1
			c0,0.1-0.1,0.2-0.2,0.2c-0.3,0-0.6,0-0.9,0c-0.2,0-0.2-0.1-0.2-0.2C44.3,34.7,44.3,34.3,44.3,33.9C44.3,33.9,44.3,33.9,44.3,33.9
			C44.3,33.9,44.3,33.9,44.3,33.9z"/>
		<path class="st3" d="M25.1,35.3c-0.5,0-1,0-1.5,0c-0.2,0-0.2,0-0.2-0.2c0.2-1.3,0.2-2.6,0.2-3.9c0-0.2,0.1-0.3,0.2-0.2
			c0.3,0,0.7,0,1,0c0.2,0,0.2,0.1,0.2,0.2C25,32.1,25,33,24.9,34c0,0.3,0,0.4,0.4,0.4c0.5,0,1,0,1.5,0c0.2,0,0.2,0,0.2,0.2
			c0,0.7,0,0.7-0.7,0.7c-0.3,0-0.6,0-0.8,0C25.3,35.3,25.2,35.3,25.1,35.3C25.1,35.3,25.1,35.3,25.1,35.3z"/>
		<path class="st3" d="M55.3,34.4c0,0.3-0.1,0.6-0.1,0.8c0,0.1-0.1,0.1-0.2,0.1c-0.6,0.1-1.1,0.1-1.7,0c-1-0.2-1.4-1-1.2-2
			c0.2-0.8,0.7-1.3,1.6-1.4c0.3,0,0.6,0,0.8,0c0.8,0.2,1.2,0.8,1.1,1.6c0,0.2-0.1,0.2-0.2,0.2c-0.6,0-1.2,0-1.8,0
			c-0.3,0-0.3,0.1-0.2,0.3c0.1,0.3,0.4,0.4,0.7,0.5C54.5,34.6,54.9,34.5,55.3,34.4z M53.9,33.4c0.1,0,0.2,0,0.3,0
			c0.3,0,0.3-0.1,0.2-0.3c-0.1-0.3-0.5-0.4-0.8-0.1c-0.1,0.1-0.2,0.2-0.2,0.4c0,0.2,0.2,0.1,0.3,0.1C53.8,33.4,53.9,33.4,53.9,33.4z
			"/>
		<path class="st3" d="M57.4,32.4c0.3-0.3,0.5-0.4,0.8-0.4c0.2,0,0.3,0,0.3,0.3c0,0.1,0,0.2,0,0.2c0,0.2,0.1,0.4,0,0.5
			c-0.1,0.2-0.3,0-0.5,0.1c-0.3,0.1-0.5,0.3-0.6,0.6c-0.1,0.5-0.1,1-0.1,1.4c0,0.2-0.1,0.3-0.3,0.3c-0.3,0-0.5,0-0.8,0
			c-0.2,0-0.2-0.1-0.2-0.3c0.1-0.9,0.1-1.9,0.1-2.8c0-0.2,0.1-0.2,0.2-0.2c0.2,0,0.5,0,0.7,0C57.3,32.1,57.5,32.1,57.4,32.4z"/>
		<path class="st3" d="M28,35.3c-0.7,0-0.6,0-0.6-0.7c0-0.8,0.1-1.5,0.1-2.3c0-0.2,0.1-0.3,0.3-0.3c0.3,0,0.6,0,0.9,0
			c0.2,0,0.2,0,0.2,0.2c-0.1,0.9-0.1,1.9-0.1,2.8c0,0.2-0.1,0.2-0.2,0.2C28.3,35.3,28.1,35.3,28,35.3z"/>
		<path class="st3" d="M40.8,35.3c-0.7,0-0.7,0-0.6-0.7c0-0.8,0.1-1.5,0.1-2.3c0-0.2,0-0.3,0.3-0.3c0.3,0,0.6,0,0.9,0
			c0.2,0,0.2,0,0.2,0.2c-0.1,1-0.1,1.9-0.1,2.9c0,0.1,0,0.2-0.2,0.2C41.1,35.3,41,35.3,40.8,35.3z"/>
		<path class="st1" d="M23.5,29.4c-0.2,0-0.5-0.1-0.7-0.1c-0.2-0.1-0.2-0.2-0.2-0.4c0.1-0.2,0.1-0.3,0.4-0.2
			c0.2,0.2,0.5,0.2,0.7,0.1c0.2,0,0.4-0.1,0.4-0.3c0.1-0.2,0-0.4-0.2-0.5c-0.1-0.1-0.3-0.2-0.4-0.2c-0.6-0.4-0.6-1.2,0.1-1.6
			c0.4-0.2,0.8-0.3,1.2-0.1c0.2,0.1,0.3,0.2,0.2,0.5c-0.1,0.2-0.1,0.2-0.3,0.1c-0.2-0.1-0.3-0.1-0.5-0.1c-0.2,0-0.3,0.1-0.4,0.3
			c-0.1,0.2,0,0.3,0.2,0.4c0.1,0.1,0.3,0.2,0.4,0.2c0.7,0.4,0.6,1.3-0.1,1.7C24.1,29.4,23.8,29.4,23.5,29.4z"/>
		<path class="st1" d="M38.2,26.9c0.8,0,1.1,0.4,1,1.2c-0.2,0.9-0.7,1.4-1.6,1.4c-0.5,0-0.8-0.3-0.9-0.8c0-0.5,0.1-0.9,0.4-1.3
			C37.5,27,37.8,26.8,38.2,26.9z M38.6,27.9c0-0.2,0-0.4-0.2-0.5c-0.3-0.1-0.5,0-0.6,0.2c-0.2,0.2-0.2,0.5-0.3,0.8
			c0,0.2,0,0.4,0.2,0.5c0.2,0.1,0.4,0,0.6-0.2C38.5,28.5,38.6,28.2,38.6,27.9z"/>
		<path class="st1" d="M52.4,29.1c-0.2,0.1-0.3,0.2-0.5,0.3c-0.5,0.1-0.8-0.1-0.9-0.6c0-0.4,0-0.8,0.2-1.2c0.4-0.7,1-0.9,1.7-0.4
			c0-0.1,0-0.1,0.1-0.2c0.1-0.1,0.2-0.1,0.3-0.1c0.1,0,0.1,0.1,0.1,0.2c-0.2,0.8-0.3,1.6-0.5,2.4c-0.2,0.7-1.2,1.1-1.8,0.6
			c-0.1-0.1-0.1-0.2-0.1-0.3c0.1-0.1,0.1-0.1,0.2-0.1c0.1,0.1,0.3,0.1,0.4,0.1C52.1,30,52.4,29.7,52.4,29.1z M51.4,28.4
			c0,0.3,0,0.5,0.2,0.6c0.2,0.1,0.4,0,0.6-0.2c0.3-0.2,0.4-0.6,0.5-0.9c0.1-0.3,0-0.5-0.2-0.6c-0.3-0.1-0.5-0.1-0.7,0.1
			C51.5,27.7,51.4,28.1,51.4,28.4z M52.4,29L52.4,29L52.4,29L52.4,29z"/>
		<path class="st1" d="M26.2,29.4c-0.8,0-1.1-0.4-1-1.2c0.1-0.4,0.2-0.8,0.6-1.1c0.4-0.3,0.8-0.3,1.2-0.2c0.3,0.1,0.5,0.2,0.5,0.5
			c0,0.3-0.1,0.5-0.4,0.7c-0.3,0.1-0.6,0.2-0.9,0.2c-0.1,0-0.3-0.1-0.3,0.2c0,0.2,0,0.4,0.3,0.4c0.2,0,0.5,0,0.7-0.1
			c0.1,0,0.2-0.2,0.3,0c0.1,0.2,0,0.3-0.2,0.4C26.7,29.4,26.5,29.4,26.2,29.4z M26.2,27.9c0.2,0,0.3,0,0.5-0.1
			c0.1-0.1,0.2-0.2,0.2-0.3c0-0.1-0.1-0.2-0.3-0.2c-0.2,0-0.4,0.1-0.5,0.3C26,27.6,26,27.7,26,27.8C26.1,27.9,26.2,27.9,26.2,27.9z"
			/>
		<path class="st1" d="M30.6,28.6c0.4-0.4,0.6-0.9,0.7-1.4c0-0.1,0-0.2,0.2-0.3c0.2,0,0.3-0.1,0.4,0c0.1,0.1,0,0.3,0,0.4
			c-0.2,0.6-0.5,1.3-0.9,1.8c-0.1,0.2-0.6,0.3-0.8,0.2C30,29.3,30,29.2,30,29.1c-0.1-0.6-0.2-1.3-0.3-1.9c0-0.2,0-0.3,0.2-0.3
			c0.2,0,0.4-0.1,0.4,0.2C30.5,27.6,30.5,28.1,30.6,28.6z"/>
		<path class="st1" d="M56.8,29.1c-0.2,0.1-0.3,0.3-0.6,0.3c-0.4,0.1-0.8-0.1-0.9-0.5c-0.1-0.7,0.1-1.2,0.5-1.7
			c0.3-0.3,0.8-0.4,1.1-0.1c0.1,0.1,0.2,0.1,0.3-0.1c0-0.1,0.2-0.1,0.3-0.1c0.1,0,0.1,0.1,0,0.2c-0.1,0.6-0.3,1.3-0.4,1.9
			c0,0.1,0,0.3-0.2,0.3C56.8,29.4,56.9,29.2,56.8,29.1z M55.8,28.5c0,0.2,0,0.4,0.2,0.5c0.2,0.1,0.4,0,0.5-0.1
			c0.4-0.3,0.5-0.8,0.6-1.2c0-0.1,0-0.2-0.1-0.2c-0.3-0.3-0.6-0.2-0.9,0.1C55.9,27.8,55.9,28.2,55.8,28.5z"/>
		<path class="st1" d="M40.7,26.9c0.2,0,0.3,0,0.5,0.1c0.2,0.1,0.2,0.2,0.2,0.4c-0.1,0.2-0.2,0.1-0.3,0.1c-0.1,0-0.2-0.1-0.3-0.1
			c-0.2,0-0.3,0.1-0.3,0.2c0,0.2,0.1,0.2,0.2,0.3c0.1,0,0.1,0.1,0.2,0.1c0.6,0.3,0.6,1,0.1,1.3c-0.4,0.2-0.8,0.3-1.2,0.1
			c-0.2-0.1-0.2-0.2-0.1-0.4c0.1-0.2,0.2-0.1,0.3,0c0.2,0.1,0.3,0.1,0.5,0.1c0.1,0,0.2-0.1,0.2-0.2c0-0.1,0-0.2-0.1-0.3
			c-0.1,0-0.1-0.1-0.2-0.1c-0.3-0.1-0.5-0.3-0.5-0.7c0-0.3,0.2-0.6,0.5-0.7C40.4,26.9,40.5,26.8,40.7,26.9z"/>
		<path class="st1" d="M33.4,28.5c0-0.5,0.2-1,0.5-1.3c0.4-0.3,0.8-0.4,1.2-0.2c0.3,0.1,0.3,0.3,0.2,0.5c-0.1,0.2-0.1,0.2-0.3,0.1
			c-0.4-0.2-0.7-0.1-0.9,0.3c-0.1,0.2-0.1,0.4-0.1,0.5c-0.1,0.4,0.2,0.7,0.6,0.5c0,0,0,0,0.1,0c0.1,0,0.3-0.2,0.3-0.1
			c0.1,0.2,0,0.4-0.2,0.5c-0.4,0.2-0.7,0.3-1.1,0.1C33.4,29.1,33.4,28.8,33.4,28.5z"/>
		<path class="st1" d="M59.3,28.5c0-0.8,0.5-1.5,1.1-1.6c0.1,0,0.1,0,0.2,0c0.4,0,0.8,0.2,0.8,0.5c0,0.3-0.2,0.6-0.6,0.7
			c-0.2,0.1-0.5,0.1-0.7,0.1c-0.2,0-0.4-0.1-0.4,0.2c0,0.3,0.1,0.6,0.4,0.6c0.2,0,0.5,0,0.7-0.1c0.1,0,0.2-0.2,0.3,0
			c0.1,0.1,0,0.3-0.2,0.3c-0.4,0.1-0.7,0.2-1.1,0C59.4,29.2,59.2,28.9,59.3,28.5z M60.1,27.9c0.2,0,0.5,0,0.7-0.1
			c0.1-0.1,0.2-0.2,0.2-0.4c0-0.2-0.2-0.2-0.3-0.2c-0.3,0-0.6,0.1-0.7,0.4c-0.1,0.1-0.1,0.2-0.1,0.3C59.9,28,60,27.9,60.1,27.9z"/>
		<path class="st1" d="M48.4,28.5c0-0.9,0.5-1.5,1.2-1.6c0.4,0,0.8,0.2,0.9,0.5c0,0.3-0.1,0.5-0.3,0.6c-0.3,0.2-0.6,0.2-1,0.2
			c-0.2,0-0.4-0.1-0.4,0.2c0,0.4,0.1,0.6,0.4,0.6c0.2,0,0.5,0,0.7-0.1c0.1,0,0.2-0.1,0.2,0c0,0.1,0,0.2-0.1,0.3
			c-0.2,0.1-0.5,0.1-0.7,0.1C48.7,29.4,48.4,29.1,48.4,28.5z M49.3,27.9c0.2,0,0.5,0,0.7-0.1c0.1-0.1,0.2-0.2,0.2-0.3
			c0-0.1-0.1-0.2-0.3-0.2c-0.3,0-0.5,0.1-0.7,0.3c-0.1,0.1-0.2,0.2-0.1,0.3C49.1,28,49.2,27.9,49.3,27.9z"/>
		<path class="st1" d="M44.9,27.3c0.2-0.2,0.4-0.3,0.7-0.4c0.4-0.1,0.7,0.2,0.7,0.5c0,0.6-0.2,1.2-0.3,1.9c0,0.2-0.2,0.1-0.3,0.1
			c-0.1,0-0.1-0.1-0.1-0.2c0.1-0.4,0.2-0.8,0.2-1.3c0-0.1,0-0.2,0-0.3c0-0.3-0.2-0.4-0.4-0.3c-0.4,0.1-0.6,0.5-0.7,0.8
			c-0.1,0.3-0.1,0.7-0.2,1c0,0.1-0.1,0.2-0.2,0.2c-0.2,0-0.2,0-0.2-0.2c0.1-0.6,0.3-1.3,0.4-1.9c0-0.2,0-0.3,0.3-0.3
			C45,26.9,44.8,27.2,44.9,27.3z"/>
		<path class="st1" d="M28.7,27.2c0.2-0.2,0.4-0.4,0.7-0.3c0.1,0,0.3,0,0.2,0.2c0,0.2,0,0.4-0.2,0.4c-0.4,0.1-0.7,0.2-0.8,0.7
			c-0.1,0.3-0.1,0.6-0.2,0.9c0,0.2-0.4,0.4-0.6,0.2c-0.1,0,0-0.1,0-0.2c0.1-0.7,0.3-1.4,0.4-2.1c0-0.2,0.2-0.2,0.3-0.2
			C28.7,26.9,28.7,27,28.7,27.2z"/>
		<path class="st1" d="M62.2,29.4c-0.2,0-0.4,0-0.5-0.2c-0.1-0.1-0.1-0.2-0.1-0.3c0.1-0.1,0.2,0,0.2,0c0.2,0.1,0.4,0.1,0.7,0.1
			c0.2,0,0.3-0.1,0.3-0.3c0-0.2-0.1-0.3-0.2-0.4c-0.1-0.1-0.2-0.1-0.4-0.2c-0.4-0.2-0.4-0.7-0.1-1.1c0.3-0.3,0.8-0.3,1.1-0.1
			c0.1,0.1,0.2,0.2,0.1,0.3c-0.1,0.2-0.2,0.1-0.3,0c-0.1,0-0.2-0.1-0.3-0.1c-0.2,0-0.4,0-0.5,0.3c-0.1,0.3,0.1,0.3,0.3,0.4
			c0.5,0.3,0.6,0.5,0.5,0.8C63.1,29.2,62.7,29.4,62.2,29.4z"/>
		<path class="st1" d="M47.5,29.4c-0.4,0-0.7-0.2-0.6-0.6c0.1-0.4,0.2-0.9,0.2-1.3c0-0.1,0.1-0.2-0.1-0.2c-0.1,0-0.2,0-0.2-0.1
			c0-0.1,0.1-0.2,0.2-0.2c0.2,0,0.3-0.1,0.3-0.3c0-0.1,0-0.2,0.1-0.2c0.1-0.2,0.2-0.1,0.3-0.1c0.1,0,0.1,0.1,0.1,0.2
			c-0.1,0.4-0.1,0.4,0.3,0.4c0.1,0,0.3,0,0.2,0.1c0,0.1-0.1,0.2-0.2,0.2c-0.1,0-0.1,0-0.2,0c-0.2,0-0.3,0-0.3,0.2
			c-0.1,0.4-0.2,0.8-0.2,1.2c0,0.2,0.1,0.3,0.3,0.3c0.1,0,0.2-0.1,0.2,0c0,0.1,0,0.2-0.1,0.3C47.7,29.4,47.6,29.4,47.5,29.4z"/>
		<path class="st1" d="M35.7,29.4c-0.2,0-0.3-0.1-0.2-0.3c0.1-0.6,0.3-1.3,0.4-1.9c0-0.2,0.4-0.4,0.6-0.2c0.1,0,0,0.1,0,0.2
			c-0.1,0.7-0.3,1.4-0.4,2.1C36.1,29.4,35.9,29.4,35.7,29.4z"/>
		<path class="st1" d="M32.4,29.4c-0.3,0.1-0.3-0.1-0.3-0.3c0.1-0.6,0.2-1.3,0.4-1.9c0-0.2,0.4-0.4,0.6-0.2c0.1,0.1,0,0.1,0,0.2
			c-0.1,0.7-0.3,1.3-0.4,2C32.7,29.3,32.6,29.4,32.4,29.4z"/>
		<path class="st1" d="M58.2,29.4c-0.2,0-0.2,0-0.2-0.2c0.2-1,0.4-2.1,0.6-3.1c0-0.2,0.2-0.2,0.3-0.2c0.2,0,0.1,0.2,0.1,0.3
			c-0.2,1-0.4,2-0.6,3C58.5,29.2,58.4,29.4,58.2,29.4z"/>
		<path class="st1" d="M43,29.4c-0.2,0-0.2,0-0.2-0.2c0.2-1,0.4-1.9,0.6-2.9c0-0.2,0.2-0.3,0.4-0.2c0.2,0,0.1,0.2,0.1,0.3
			c-0.2,0.9-0.4,1.8-0.5,2.7C43.3,29.2,43.3,29.4,43,29.4z"/>
		<path class="st1" d="M54.4,27.2c0.2-0.2,0.3-0.3,0.6-0.3c0.1,0,0.2,0,0.3,0.1c0.1,0.1,0,0.2,0,0.3c0,0.1-0.1,0.1-0.1,0.1
			c-0.3-0.1-0.5,0.1-0.7,0.4c-0.3,0.4-0.3,0.9-0.4,1.3c0,0.1,0,0.4-0.2,0.4c-0.2,0-0.2,0-0.2-0.2c0.1-0.6,0.3-1.3,0.4-2
			c0-0.1,0-0.3,0.3-0.3C54.5,26.9,54.3,27.1,54.4,27.2z"/>
		<path d="M59,35.6c0.2,0,0.3,0,0.5,0.2c0,0.1,0.1,0.1,0,0.2c-0.1,0-0.2,0.1-0.2,0c-0.1-0.1-0.1-0.1-0.2-0.2c-0.1,0-0.3,0-0.3,0.1
			c-0.1,0.1,0.1,0.2,0.2,0.2c0.1,0,0.3,0.1,0.4,0.1c0.2,0.1,0.3,0.4,0.2,0.6c-0.1,0.2-0.4,0.2-0.6,0.2c-0.2,0-0.4-0.1-0.5-0.3
			c0-0.1-0.1-0.2,0-0.2c0.1,0,0.2-0.1,0.2,0.1c0,0.1,0.1,0.2,0.2,0.2c0.1,0,0.3,0,0.3-0.1c0.1-0.2-0.1-0.2-0.2-0.2
			c-0.1,0-0.1,0-0.2-0.1c-0.2-0.1-0.4-0.2-0.4-0.5C58.5,35.7,58.7,35.6,59,35.6z"/>
		<path d="M61.6,37c-0.2,0.1-0.3,0-0.4-0.2c-0.1-0.2-0.3-0.1-0.4-0.1c-0.1,0-0.2,0-0.3,0.1c0,0.2-0.2,0.2-0.4,0.2
			c0.2-0.4,0.3-0.8,0.5-1.3c0-0.1,0.1-0.2,0.2-0.2c0.1,0,0.2,0.1,0.2,0.2C61.3,36.2,61.5,36.6,61.6,37z M60.9,36
			c-0.1,0.2-0.2,0.3-0.1,0.5c0,0.1,0.2,0.1,0.2,0C61.1,36.3,61,36.2,60.9,36z"/>
		<path class="st3" d="M41,30.9c0.1,0,0.1,0,0.2,0c0.5,0,0.4,0,0.4,0.5c0,0.3-0.1,0.3-0.3,0.3c-0.2,0-0.5,0-0.7,0
			c-0.2,0-0.2,0-0.2-0.2C40.3,30.9,40.3,30.9,41,30.9z"/>
		<path class="st3" d="M28.2,30.9c0.1,0,0.1,0,0.2,0c0.5,0,0.4,0,0.5,0.4c0,0.3-0.1,0.3-0.3,0.3c-0.2,0-0.5,0-0.7,0
			c-0.3,0-0.3-0.1-0.3-0.3c0-0.1,0-0.2,0-0.2c0-0.2,0-0.2,0.2-0.2C27.9,30.9,28,30.9,28.2,30.9C28.2,30.9,28.2,30.9,28.2,30.9z"/>
		<path d="M62.6,36.3c0,0.2,0,0.4,0.2,0.5c0.2,0.1,0.3,0,0.4-0.2c0.1-0.1,0.1-0.1,0.2,0c0.1,0,0.1,0.1,0,0.2
			c-0.1,0.3-0.4,0.3-0.6,0.3c-0.3,0-0.4-0.2-0.5-0.4c-0.1-0.3-0.1-0.6,0.2-0.9c0.2-0.2,0.4-0.2,0.7-0.2c0.1,0,0.2,0.1,0.3,0.2
			c0,0.1,0.1,0.1,0.1,0.2c-0.1,0.1-0.2,0.1-0.3,0c-0.1-0.2-0.3-0.2-0.4-0.1C62.6,36,62.6,36.1,62.6,36.3z"/>
		<path class="st3" d="M61.8,30.9c-0.3,0.7-0.8,0.8-1.5,0.7c0.1-0.2,0.2-0.4,0.3-0.6c0-0.1,0.1-0.1,0.2-0.1
			C61.1,30.9,61.5,30.9,61.8,30.9z"/>
		<path class="st1" d="M32.8,26.6c-0.2,0-0.3,0-0.3-0.2c0-0.3,0.2-0.4,0.5-0.4c0.2,0,0.3,0,0.3,0.3C33.3,26.5,33.2,26.6,32.8,26.6z"
			/>
		<path class="st1" d="M36.3,26.6c-0.2,0-0.3-0.1-0.3-0.3c0-0.3,0.2-0.4,0.5-0.4c0.2,0,0.3,0,0.3,0.3C36.7,26.4,36.6,26.6,36.3,26.6
			z"/>
		<path d="M59.9,36.8c0.1,0,0.1,0.1,0.1,0.2c0,0.1-0.1,0.1-0.2,0.1c-0.1,0-0.2,0-0.2-0.1C59.8,36.8,59.8,36.7,59.9,36.8z"/>
		<path d="M62.1,36.9c0,0.1-0.1,0.1-0.2,0.1c-0.1,0-0.2-0.1-0.2-0.2c0-0.1,0.1-0.1,0.2-0.1C62,36.7,62.1,36.8,62.1,36.9z"/>
	</g>
</g>
</svg>
